<?xml version="1.0" encoding="utf-8"?>
<!-- Generator: Adobe Illustrator 24.1.2, SVG Export Plug-In . SVG Version: 6.00 Build 0)  -->
<svg version="1.1" id="Layer_1" xmlns="http://www.w3.org/2000/svg" xmlns:xlink="http://www.w3.org/1999/xlink" x="0px" y="0px"
	 viewBox="0 0 512 512" style="enable-background:new 0 0 512 512;" xml:space="preserve">
<style type="text/css">
	.st0{fill:#FFFFFF;}
</style>
<g>
	<path class="st0" d="M494.5,448.8l-4.3-0.7c-4.2-0.7-8.3-1.4-12.5-1.5c-11.5-0.1-25.3-0.7-29.5-5c-4.1-4.1-4.5-17.5-4.4-28.7
		c0.1-7.4-5.9-13.5-13.2-13.5h-0.1c-1.8,0-3.4,0.4-5,1c-0.1-65-0.6-152.2-1.6-175.9c-2.4-58-13.2-122.9-75.1-163.8
		c-31.3-20.7-71.3-28.2-111.2-22C170.4,27.8,85,58.4,57.4,137.1c-10.5,29.8-15.6,61.3-15.7,96.5c-0.1,33.7,1.5,76.3,3.1,121.4
		c1,28.1,2,56.5,2.7,83.2c-16-0.2-28.8,0-36.4,8.1c-3.6,3.9-5.4,9-5,14.4c0.5,7,6.4,12.3,13.3,12.3c0.4,0,0.7,0,1,0
		c5-0.4,9.1-3.4,11.1-7.7c4.5-0.6,12.6-0.5,18.3-0.4c18.8,0.2,38.3,0.6,47.9-11.5c1.7-2.2,3.3-3.1,4.2-3.4
		c27.5,31.3,53.9,11.1,69.7-1l1.2-0.9c18.8,29.5,48.9,25.8,73.6,22.9c9.7-1.2,19.8-2.4,29.2-1.9c7,0.4,14,1.1,20.9,1.8
		c10.1,1,20.5,2.1,31.1,2.2c12-0.1,26.4-1.3,35.2-10.5c9.5,5.1,18.8,7.7,27.7,7.7c12.5,0,24.2-5.3,34.7-15.3
		c1.2,1.9,2.3,3.8,3.9,5.4c10.4,10.6,26.2,12.8,48.4,13c2.6,0,5.3,0.6,7.9,1.1c1.7,0.3,3.5,0.6,5.2,0.9c0.6,0.1,1.3,0.1,1.9,0.1
		c6.5,0,12.3-4.8,13.2-11.5C506.9,456.6,501.8,449.9,494.5,448.8L494.5,448.8z M95.1,233.6c-0.1,33.1,1.4,72.3,3,113.7
		c1,25.2,1.9,50.8,2.5,76.1c-8.9,0.7-17.5,5.4-23.3,12.9c-0.7,0.4-1.8,0.7-3.1,1c-0.6-26.8-1.7-55.2-2.7-83.2
		c-1.6-44.9-3.2-87.2-3.1-120.4c0.1-32.1,4.8-60.9,14.2-87.7c12.5-35.7,41.1-59.9,74-72.5c-21.1,16.9-37.1,38.6-45.9,63.6
		C100.3,166.8,95.2,198.4,95.1,233.6L95.1,233.6z M369,434.9c-1.2-5.8-3.2-11.5-5.3-16.6c-2.9-6.8-10.7-10-17.5-7.2
		c-6.8,2.9-10,10.7-7.2,17.5c4.9,11.6,4.3,15.4,4.6,15.5c-0.5,0.3-4,2.4-15.7,2.1c-9.3-0.1-18.6-1-28.5-2
		c-7.4-0.8-14.8-1.5-22.3-1.9c-11.7-0.6-22.9,0.7-33.8,2.1c-28.6,3.4-41.6,4.1-51.1-16.8c-2.6-5.8-7.7-7.9-9.7-8.6
		c-4.2-2.3-9.3-2.2-13.3,0.2l-3.3,1.9c-3.1,1.7-6.1,3.5-8.8,5.6l-1.5,1.2c-14.8,11.3-20.8,14.8-27.6,10.1c-0.6-30.1-1.8-61.2-3-91.6
		c-1.6-41.2-3.1-80.1-3-112.6c0.1-32.2,4.8-60.9,14.2-87.8c12.1-34.5,41.3-61.8,79.9-74.8c40.9-13.8,86.1-9.2,118,11.9
		c41.8,27.6,60.1,69,63.2,142.6c1.2,28.6,1.6,156.6,1.6,215.9C390.2,445.4,380.8,443.2,369,434.9L369,434.9z"/>
	<path class="st0" d="M225.3,236.8c-3.4-5.5-7.9-13-15.9-17.8c4.4-4.6,7.4-10.1,8.8-16c3-13.4-4.2-27.4-16.3-31.9
		c-4.8-1.8-9.4-1.8-12.8-1.8l-26.6,0.1c-7.4,0-13.4,6-13.4,13.4c0,2,0.5,3.9,1.3,5.6c-1,25.8-0.6,51.8,1.5,77.5
		c0.6,7,6.4,12.3,13.3,12.3c0.4,0,0.7,0,1.1,0c7.4-0.6,12.9-7.1,12.3-14.4c-0.6-7.4-0.7-14.9-1.1-22.3c2.2,0,4.3-0.1,6.3-0.2
		c4.8-0.3,9.3-0.6,11.6,0.7c2.4,1.3,4.9,5.5,7,8.9l12.1,19.9c2.5,4.1,6.9,6.4,11.5,6.4c2.4,0,4.8-0.6,6.9-1.9
		c6.3-3.8,8.3-12.1,4.5-18.4L225.3,236.8z M186.2,203.4c-2.6,1.5-5.9,2.6-9.3,3.6c0-3.6,0.1-7.3,0.2-10.9l12,0c1.2,0,3,0,3,1.1
		C191.6,199.2,189.3,201.6,186.2,203.4L186.2,203.4z"/>
	<path class="st0" d="M280.1,182.1c0.3-7.4-5.4-13.6-12.8-14c-7.2-0.4-13.6,5.4-14,12.8c-1.2,26.7-0.7,53.7,1.3,80.2
		c0.5,7,6.4,12.4,13.3,12.4c0.4,0,0.7,0,1,0c7.4-0.6,12.9-7,12.3-14.4C279.4,233.6,279,207.7,280.1,182.1L280.1,182.1z"/>
	<path class="st0" d="M310,167c-6.5,1-11.3,6.6-11.3,13.2v86.6c0,7.4,6,13.4,13.4,13.4s13.4-6,13.4-13.4v-22.3
		c18.1-0.1,32.4-6.9,40.2-19.4c7.4-12,7.1-27-1-39.1C354.2,170.3,333.9,163.3,310,167L310,167z M342.9,211c-2.7,4.3-9,6.7-17.4,6.7
		v-24.9c7.8,0.5,13.8,3.3,16.9,7.9C344.6,204.1,344.8,208,342.9,211L342.9,211z"/>
</g>
</svg>
